<svg xmlns="http://www.w3.org/2000/svg" width="44" height="41" viewBox="0 0 44 41">
    <g fill="#4B4798" fill-rule="nonzero">
        <path d="M3.727 28.032c.485 0 .878.402.878.897v.514a.903.903 0 0 1-.422.824.863.863 0 0 1-.91 0 .903.903 0 0 1-.421-.824v-.514c0-.494.39-.895.875-.897zm0 3.48c.485 0 .878.401.878.897v4.855a.903.903 0 0 1-.422.823.863.863 0 0 1-.91 0 .903.903 0 0 1-.421-.823v-4.855c0-.494.39-.895.875-.897zm38.506 7.69h-17.4V21.397h17.4v17.805zm-29.3-19.6V1.795h17.4v17.809h-17.4zm6.2 19.6H1.739V21.397h17.394v17.805zM43.1 19.6H32.08V.897A.888.888 0 0 0 31.205 0H12.05a.888.888 0 0 0-.874.897v18.706H.878A.888.888 0 0 0 0 20.5v19.603c0 .238.093.466.257.634A.869.869 0 0 0 .878 41h19.154a.869.869 0 0 0 .62-.263.907.907 0 0 0 .258-.634V21.397h2.184v18.706c0 .238.092.466.257.634a.869.869 0 0 0 .62.263h19.154a.888.888 0 0 0 .875-.897V20.5c0-.24-.093-.47-.26-.64a.865.865 0 0 0-.629-.257l-.01-.004z"/>
        <path d="M37.576 26.248a2.711 2.711 0 0 0-1.201-.929 4.69 4.69 0 0 0-1.81-.318h-3.563v8.137c-.022.301.15.588.448.745.298.156.67.156.968 0 .297-.157.47-.444.448-.745v-3h1.648a4.22 4.22 0 0 0 2.564-.674c.617-.456.956-1.135.92-1.839a2.33 2.33 0 0 0-.422-1.377zm-1.868 2.255c-.32.226-.727.34-1.139.318h-1.681v-2.503h1.721c.41-.016.808.118 1.1.369.272.26.415.603.395.954.019.324-.126.639-.396.862zM14.54 26.248a2.704 2.704 0 0 0-1.197-.929 4.671 4.671 0 0 0-1.807-.318H8.002v8.137c-.022.301.15.588.447.745.296.156.668.156.964 0 .297-.157.469-.444.447-.745v-.204h.018v-2.796h1.647a4.206 4.206 0 0 0 2.556-.674c.615-.456.953-1.135.916-1.839a2.373 2.373 0 0 0-.456-1.377zm-1.868 2.255c-.32.226-.725.34-1.136.318H9.86v-2.503h1.72c.408-.014.804.12 1.095.37.271.26.413.602.394.953.02.325-.126.64-.397.862zM23.576 8.249a2.69 2.69 0 0 0-1.201-.93 4.688 4.688 0 0 0-1.81-.318h-3.563v8.136c-.022.302.15.59.448.746.298.156.67.156.968 0 .297-.157.47-.444.448-.746v-3.001h1.648a4.24 4.24 0 0 0 2.564-.672c.617-.458.957-1.138.92-1.843a2.334 2.334 0 0 0-.422-1.372zm-1.872 2.257c-.32.226-.726.34-1.139.318h-1.68V8.32h1.724c.41-.016.808.118 1.1.37.272.259.415.603.395.954.018.325-.128.64-.4.863z"/>
    </g>
</svg>
