<svg xmlns="http://www.w3.org/2000/svg" width="40" height="34" viewBox="0 0 40 34">
    <path fill="#4B4798" fill-rule="nonzero" d="M39.467 18.573l-9.164-9.095V1.805C30.303.808 29.489 0 28.485 0a1.811 1.811 0 0 0-1.818 1.805v4.064L21.285.53a1.828 1.828 0 0 0-2.571 0L.533 18.573a1.795 1.795 0 0 0 0 2.552c.355.352.82.529 1.285.529.465 0 .93-.177 1.286-.529L6.06 18.19v13.69c0 .996.814 1.804 1.818 1.804H32.12a1.811 1.811 0 0 0 1.818-1.804V18.19l2.957 2.935c.71.705 1.861.705 2.572 0 .71-.705.71-1.847 0-2.552zM18.182 30.075v-7.218h3.636v7.218h-3.636zm12.121 0h-4.848v-9.022c0-.997-.814-1.805-1.819-1.805h-7.272a1.811 1.811 0 0 0-1.819 1.805v9.022H9.697V14.581L19.999 4.357l10.304 10.225v15.493z"/>
</svg>
