<svg id="Layer_1" data-name="Layer 1" xmlns="http://www.w3.org/2000/svg" viewBox="0 0 399.67 207.59"><defs><style>.cls-1{opacity:0.2;}.cls-2{fill:#4b4798;}.cls-2,.cls-3{fill-rule:evenodd;}.cls-3{fill:#fcbf06;opacity:0.73;}.cls-4{fill:#706f6f;}</style></defs><g class="cls-1"><path class="cls-2" d="M364.88,152.64a11.44,11.44,0,1,1,11.44-11.44A11.44,11.44,0,0,1,364.88,152.64Zm-117.66,0H98.52a11.44,11.44,0,1,1,0-22.87H34.79a11.44,11.44,0,1,1,0-22.88h65.36a11.44,11.44,0,0,0,0-22.88H59.3a11.44,11.44,0,1,1,0-22.88h65.37a11.44,11.44,0,1,1,0-22.87h93.14a11.44,11.44,0,1,1,0,22.87H322.39a11.44,11.44,0,0,1,0,22.88h35.95a11.44,11.44,0,0,1,0,22.88h-31a11.44,11.44,0,1,0,0,22.88h9.8a11.44,11.44,0,1,1,0,22.87h-85a11.64,11.64,0,0,1-2.45-.26A11.66,11.66,0,0,1,247.22,152.64Z"/></g><path class="cls-3" d="M271.7,59.8c5.6,4.86,12.53,10.68,17.82,18.15,9.22,13,8.58,26.52,1.28,40.54-6.65,12.76-16,23.09-27.38,31.72a168.63,168.63,0,0,1-43.75,24.53,59.3,59.3,0,0,1-19.54,3.85c-17,.32-28.7-7.59-35.71-22.71-4.11-8.87-6.12-18.41-7.8-28a154.48,154.48,0,0,1-.64-50c1.86-12.35,4.79-24.39,10.85-35.56,8.06-14.87,21.64-21.46,37.93-18.43,10.74,2,20.46,6.47,30,11.39A191.5,191.5,0,0,1,271.7,59.8Z"/><path class="cls-4" d="M264.06,58.32A37,37,0,0,0,248.24,44.4a53,53,0,0,0-23.07-4.82H179.5V152.94h30.7V116h14.53c13.73,0,24.75-3.38,32.73-10S269.67,90,269.67,78.75A38.14,38.14,0,0,0,264.06,58.32ZM225.17,91.26h-15V64.31h15.26c4.13,0,7.26,1.32,9.58,3.9s3.54,6.2,3.54,10.7c0,4-1.11,7.06-3.32,9.15S229.65,91.26,225.17,91.26ZM208.1,95.72a7.91,7.91,0,1,1-7.92,7.9A7.92,7.92,0,0,1,208.1,95.72Zm12.36,7.9a12.26,12.26,0,0,0-2.86-7.9h7.57c5.65,0,10.09-1.49,13.17-4.43s4.7-7.14,4.7-12.38c0-5.64-1.58-10.25-4.69-13.69s-7.49-5.32-12.87-5.37H205.74V91.49a12.36,12.36,0,0,0,0,24.27v32.72H184V44h41.21a48.85,48.85,0,0,1,21.15,4.37,32.74,32.74,0,0,1,13.95,12.27,33.71,33.71,0,0,1,4.94,18.07c0,9.87-3.57,17.86-10.61,23.76s-17.21,9-29.87,9H217.6A12.25,12.25,0,0,0,220.46,103.62Z"/></svg>