<svg xmlns="http://www.w3.org/2000/svg" width="40" height="40" viewBox="0 0 40 40">
    <g fill="#4B4798" fill-rule="evenodd">
        <path fill-rule="nonzero" d="M20 0C8.972 0 0 8.972 0 20s8.972 20 20 20 20-8.972 20-20S31.028 0 20 0zm0 37.377c-9.581 0-17.377-7.795-17.377-17.377 0-9.582 7.796-17.377 17.377-17.377S37.377 10.418 37.377 20c0 9.582-7.796 17.377-17.377 17.377z"/>
        <path d="M20 9.138a6.386 6.386 0 0 0-6.38 6.38 1.311 1.311 0 1 0 2.624 0A3.76 3.76 0 0 1 20 11.76a3.76 3.76 0 0 1 3.756 3.757A3.76 3.76 0 0 1 20 19.273c-.725 0-1.312.587-1.312 1.311v4.569a1.311 1.311 0 1 0 2.623 0V21.76c2.89-.606 5.068-3.175 5.068-6.243A6.386 6.386 0 0 0 20 9.138zM20 27.374a1.647 1.647 0 1 0 .001 3.294 1.647 1.647 0 0 0 0-3.294z"/>
    </g>
</svg>
