<svg xmlns="http://www.w3.org/2000/svg" width="40" height="40" viewBox="0 0 40 40">
    <path fill="#4B4798" fill-rule="nonzero" d="M37.656 21.374v-3.717c0-.648-.525-1.172-1.172-1.172-2.42 0-4.678.204-6.81.621a10.58 10.58 0 0 0-4.4-2.547 8.189 8.189 0 0 0 2.929-6.278C28.203 3.715 24.523 0 20 0s-8.203 3.715-8.203 8.281a8.188 8.188 0 0 0 2.928 6.278 10.582 10.582 0 0 0-4.399 2.547c-2.132-.417-4.39-.621-6.81-.621-.648 0-1.172.524-1.172 1.172v3.717A3.521 3.521 0 0 0 0 24.688v2.344c0 1.527.98 2.83 2.344 3.314v3.717c0 .647.524 1.172 1.172 1.172 6.127 0 11.158 1.452 15.834 4.569.392.261.908.262 1.3 0 4.676-3.117 9.707-4.569 15.834-4.569.648 0 1.172-.525 1.172-1.172v-3.717A3.521 3.521 0 0 0 40 27.032v-2.344c0-1.528-.98-2.83-2.344-3.314zM14.141 8.28c0-3.274 2.628-5.937 5.859-5.937 3.23 0 5.86 2.663 5.86 5.937 0 3.231-2.63 5.86-5.86 5.86a5.866 5.866 0 0 1-5.86-5.86zM3.516 28.204a1.173 1.173 0 0 1-1.172-1.172v-2.344c0-.646.525-1.172 1.172-1.172.646 0 1.171.526 1.171 1.172v2.344c0 .646-.525 1.172-1.171 1.172zm15.312 8.522c-4.254-2.433-8.82-3.662-14.14-3.818v-2.562a3.521 3.521 0 0 0 2.343-3.314v-2.344c0-1.528-.98-2.83-2.344-3.314v-2.529c5.507.158 9.933 1.455 14.141 4.134v13.747zM20 20.95a27.85 27.85 0 0 0-6.818-3.134 8.22 8.22 0 0 1 4.474-1.33h4.688a8.22 8.22 0 0 1 4.474 1.33A27.849 27.849 0 0 0 20 20.949zm15.312 11.96c-5.321.155-9.886 1.385-14.14 3.817V22.98c4.208-2.68 8.634-3.977 14.14-4.135v2.529a3.521 3.521 0 0 0-2.343 3.314v2.344c0 1.528.98 2.83 2.343 3.314v2.562zm2.344-5.877c0 .646-.526 1.172-1.172 1.172a1.173 1.173 0 0 1-1.172-1.172v-2.344c0-.646.526-1.172 1.172-1.172.646 0 1.172.526 1.172 1.172v2.344z"/>
</svg>
