<svg id="Layer_1" data-name="Layer 1" xmlns="http://www.w3.org/2000/svg" viewBox="0 0 368.69 240.51"><defs><style>.cls-1{opacity:0.2;}.cls-2{fill:#4b4798;}.cls-2,.cls-5{fill-rule:evenodd;}.cls-3{fill:#fcbf06;opacity:0.73;}.cls-4,.cls-5{fill:#646564;}</style></defs><g class="cls-1"><path class="cls-2" d="M325.8,145.71A12.69,12.69,0,1,1,338.48,133,12.68,12.68,0,0,1,325.8,145.71Zm-56.16,50.72H119.27a12.68,12.68,0,1,1,0-25.36H48.61a12.68,12.68,0,0,1,0-25.36h72.47a12.69,12.69,0,0,0,0-25.37H75.79a12.68,12.68,0,1,1,0-25.36h72.46a12.69,12.69,0,0,1,0-25.37H325.8a12.69,12.69,0,0,1,0,25.37H253.33a12.68,12.68,0,0,1,0,25.36h39.86a12.69,12.69,0,0,1,0,25.37H274.76c-8.84,0-16,5.67-16,12.68q0,7,10.87,12.68a12.68,12.68,0,0,1,0,25.36Z"/></g><path class="cls-3" d="M216.8,60.15a85.56,85.56,0,0,1,29.47,10.12c8.31,4.8,15.9,11.57,19.53,20.46,5.34,13.12,1.19,28.07-4.06,41.23a242.87,242.87,0,0,1-31.12,55.86c-7,9.34-15.39,18.56-26.61,21.78-11,3.15-23-.1-32.73-6.14-10.07-6.27-18.42-15.32-26.24-24.12a124.19,124.19,0,0,1-19.67-29.45c-5.19-11.16-8-23.67-6.34-35.87,2.36-17.15,13.67-32.34,28.26-41.67s32.16-13.23,49.48-13.54A114.9,114.9,0,0,1,216.8,60.15Z"/><path class="cls-4" d="M192.11,171.15c0,.23,0,.23.24.47h0a2.32,2.32,0,0,0,2.11,2.58h.23a2.49,2.49,0,0,0,2.35-2.11c0-.47,4.94-46.28,36.88-73.53a2.33,2.33,0,1,0-3-3.52c-23.26,20-32.65,48.39-36.18,64.6a128.31,128.31,0,0,0-6.34-18.09,2.31,2.31,0,0,0-4.23,1.88A139,139,0,0,1,192.11,171.15Z"/><path class="cls-4" d="M132.92,87.05A103.24,103.24,0,0,1,146.31,96a3.27,3.27,0,0,0,1.41.47,2.11,2.11,0,0,0,1.87-.94,2.52,2.52,0,0,0-.47-3.29A144.9,144.9,0,0,0,135,83.06a2.27,2.27,0,1,0-2.11,4Z"/><path class="cls-4" d="M124.46,77.66c-1.41-.71-2.82-1.18-4.46-1.88A2.31,2.31,0,1,0,118.12,80c1.41.7,2.82,1.17,4.23,1.88a1.42,1.42,0,0,0,.94.23,2.25,2.25,0,0,0,2.11-1.41A1.84,1.84,0,0,0,124.46,77.66Z"/><path class="cls-4" d="M174.49,126.28a2.4,2.4,0,0,0,1.88,1.18,1.85,1.85,0,0,0,1.18-.47,2.31,2.31,0,0,0,.7-3.29,115.39,115.39,0,0,0-14.8-18.79,2.32,2.32,0,0,0-3.29,3.28A120.94,120.94,0,0,1,174.49,126.28Z"/><path class="cls-4" d="M250.83,94.34a11.75,11.75,0,1,0-11.74-11.75A11.64,11.64,0,0,0,250.83,94.34Zm0-18.8a7.05,7.05,0,1,1-7,7A6.92,6.92,0,0,1,250.83,75.54Z"/><path class="cls-5" d="M215.36,183.25a2.55,2.55,0,0,1-2.55,2.55H178.53a2.55,2.55,0,1,1,0-5.1h34.28A2.55,2.55,0,0,1,215.36,183.25Z"/></svg>