<svg xmlns="http://www.w3.org/2000/svg" width="192" height="100" viewBox="0 0 192 100">
    <g fill="none" fill-rule="evenodd">
        <path fill="#4B4798" d="M183.903 54.985c-4.426.004-8.017-3.629-8.02-8.114-.004-4.484 3.581-8.123 8.008-8.126 4.426-.004 8.017 3.629 8.02 8.114a8.175 8.175 0 0 1-2.342 5.743 7.963 7.963 0 0 1-5.666 2.383zm-35.482 32.448H53.463c-4.423 0-8.008-3.632-8.008-8.113s3.585-8.114 8.008-8.114H8.843a7.986 7.986 0 0 1-7.123-3.988 8.206 8.206 0 0 1 0-8.245 7.986 7.986 0 0 1 7.122-3.988h45.764c4.337-.123 7.79-3.72 7.79-8.117 0-4.396-3.453-7.993-7.79-8.117H26.002a7.99 7.99 0 0 1-6.935-4.057 8.206 8.206 0 0 1 0-8.113 7.99 7.99 0 0 1 6.935-4.057h45.77c-4.422 0-8.008-3.633-8.008-8.114 0-4.48 3.586-8.113 8.009-8.113h112.13c4.423 0 8.009 3.632 8.009 8.113s-3.586 8.114-8.009 8.114H138.14a7.99 7.99 0 0 1 6.935 4.057 8.206 8.206 0 0 1 0 8.113 7.99 7.99 0 0 1-6.935 4.057h25.168c4.337.124 7.79 3.721 7.79 8.117 0 4.396-3.453 7.994-7.79 8.117h-11.64c-5.576 0-10.105 3.628-10.105 8.114 0 2.986 2.289 5.69 6.865 8.114 4.423 0 8.009 3.632 8.009 8.113s-3.586 8.114-8.009 8.114l-.006-.007z" opacity=".2"/>
        <path fill="#71B95A" d="M117.441 8.91c4.54 1.279 10.119 2.73 15.2 5.594 8.852 4.979 12.176 12.963 11.807 23.062-.338 9.186-2.923 17.725-7.088 25.824a107.967 107.967 0 0 1-18.467 26.15 37.702 37.702 0 0 1-10.189 7.575c-9.685 4.845-18.581 3.49-26.745-3.33-4.782-3.995-8.546-8.95-12.137-14.063a99.053 99.053 0 0 1-14.01-28.675c-2.299-7.67-3.897-15.398-3.464-23.51.58-10.796 6.597-18.32 16.792-21.036 6.719-1.797 13.532-1.873 20.378-1.65a121.752 121.752 0 0 1 27.923 4.06z" opacity=".73"/>
        <path fill="#646564" fill-rule="nonzero" d="M91.152 70.462a25.137 25.137 0 0 1-1.895-9.86c.13-1.765.391-3.519.783-5.245l.177-.948a46.483 46.483 0 0 0 1.017-8.472c0-7.033-1.453-12.896-4.207-16.957-2.678-3.946-6.588-6.123-11.016-6.123s-8.035 2.438-10.366 6.855c-1.895 3.558-2.912 8.275-2.912 13.29a94.906 94.906 0 0 0 4.674 27.403c1.781 5.27 3.91 9.49 6.317 12.533 2.937 3.685 6.418 5.633 10.063 5.633a9.211 9.211 0 0 0 6.637-2.713 9.356 9.356 0 0 0 2.725-6.676c0-3.329-.917-5.728-1.801-8.084l-.196-.636zm-3.98-16.664c-.082.446-.17.878-.252 1.273a30.772 30.772 0 0 0-.764 5.48A28.636 28.636 0 0 0 88.234 71.5l.246.637c.89 2.355 1.598 4.22 1.598 7.002a6.167 6.167 0 0 1-1.8 4.468 6.071 6.071 0 0 1-4.447 1.782c-2.742 0-5.237-1.457-7.63-4.455-2.149-2.693-4.157-6.71-5.806-11.598-3.108-9.172-4.53-20.088-4.53-26.358 0-4.455.923-8.777 2.528-11.813 1.844-3.495 4.34-5.194 7.637-5.194 3.461 0 6.316 1.597 8.433 4.754 2.406 3.54 3.676 8.79 3.676 15.188a44.098 44.098 0 0 1-.966 7.886zM126.368 6.855C124.037 2.431 120.354 0 115.996 0c-4.359 0-8.332 2.177-11.01 6.123-2.755 4.061-4.208 9.924-4.208 16.957a45.931 45.931 0 0 0 1.049 8.466l.183.967c.388 1.722.648 3.471.777 5.232a25.253 25.253 0 0 1-1.895 9.86l-.24.636c-.884 2.336-1.8 4.755-1.8 8.084a9.356 9.356 0 0 0 2.721 6.673 9.215 9.215 0 0 0 6.634 2.716c3.645 0 7.125-1.948 10.069-5.633 2.426-3.043 4.56-7.263 6.317-12.533a94.943 94.943 0 0 0 4.674-27.402c.013-5.016-1.023-9.733-2.9-13.29zM103.55 49.35l.247-.637a28.662 28.662 0 0 0 2.078-10.948 30.907 30.907 0 0 0-.764-5.486c-.082-.42-.17-.86-.253-1.273a44.098 44.098 0 0 1-.966-7.88c0-6.366 1.263-11.649 3.67-15.188 2.141-3.182 4.977-4.754 8.433-4.754 3.303 0 5.798 1.7 7.643 5.187 1.604 3.043 2.527 7.352 2.527 11.82 0 6.244-1.415 17.186-4.523 26.377-1.649 4.889-3.658 8.912-5.805 11.598-2.394 2.998-4.89 4.455-7.637 4.455a6.071 6.071 0 0 1-4.444-1.784 6.167 6.167 0 0 1-1.797-4.466c-.007-2.801.694-4.666 1.591-7.021z"/>
    </g>
</svg>
