<svg xmlns="http://www.w3.org/2000/svg" width="220" height="100" viewBox="0 0 220 100">
    <g fill="none" fill-rule="evenodd">
        <path fill="#4B4798" d="M211.235 33.318c-4.534 0-8.209-3.696-8.209-8.254 0-4.56 3.675-8.255 8.209-8.255 4.533 0 8.208 3.696 8.208 8.255 0 4.558-3.675 8.254-8.208 8.254zm-77.358 66.025H45.32c-3.76 0-6.809-3.694-6.809-8.254s3.05-8.254 6.81-8.254H7.37c-3.76 0-6.81-3.694-6.81-8.247 0-4.552 3.05-8.254 6.81-8.254h38.925c3.76 0 6.81-3.694 6.81-8.254s-3.05-8.254-6.81-8.254H21.964c-3.76 0-6.81-3.694-6.81-8.254s3.05-8.254 6.81-8.254H60.89c-3.76 0-6.81-3.694-6.81-8.254s3.05-8.255 6.81-8.255h55.472c3.76 0 6.81 3.702 6.81 8.255 0 4.552-3.05 8.254-6.81 8.254h62.304c3.76 0 6.81 3.694 6.81 8.254s-3.079 8.254-6.81 8.254h21.382c3.76 0 6.81 3.694 6.81 8.254s-3.05 8.254-6.81 8.254h-18.512c-3.76 0-6.81 3.694-6.81 8.254s3.05 8.247 6.81 8.247h5.84c3.76 0 6.81 3.702 6.81 8.254 0 4.553-3.05 8.254-6.81 8.254h-50.578a5.82 5.82 0 0 1-1.435-.187c-.485.127-.985.19-1.486.187z" opacity=".2"/>
        <path fill="#79CCF0" d="M169.713 39.38a61.052 61.052 0 0 1 6.2 21.44c.598 6.852-.252 14.085-4.004 19.863-5.53 8.522-16.066 12.224-25.996 14.551a175.804 175.804 0 0 1-45.807 4.69c-8.396-.272-17.283-1.432-23.836-6.666-6.402-5.149-9.455-13.548-9.894-21.726-.468-8.471 1.44-17.093 3.384-25.285a88.498 88.498 0 0 1 9.247-23.631C83.45 14.99 89.657 8.186 97.55 4.162c11.097-5.657 24.721-5.263 36.25-.537 11.53 4.727 21.1 13.427 28.43 23.452a82.211 82.211 0 0 1 7.483 12.303z"/>
        <path fill="#646564" fill-rule="nonzero" d="M88.59 14.13c-12.902.016-23.357 10.606-23.373 23.674 0 8.08 6.394 20.01 19.58 36.46a4.86 4.86 0 0 0 7.587 0l.064-.072c13.129-16.406 19.509-28.308 19.509-36.381-.008-13.07-10.463-23.665-23.366-23.68zm20.12 23.674c0 7.195-6.344 18.766-18.848 34.38a1.62 1.62 0 0 1-2.543 0C74.809 56.57 68.47 45 68.47 37.804c0-11.255 9.008-20.378 20.12-20.378 11.111 0 20.119 9.123 20.119 20.378z"/>
        <path fill="#646564" fill-rule="nonzero" d="M89.138 50a11.956 11.956 0 1 1 11.949-11.95A11.869 11.869 0 0 1 89.137 50zm0-21.729c-5.4.004-9.776 4.38-9.78 9.78a9.67 9.67 0 0 0 2.11 6.07 9.78 9.78 0 1 0 7.67-15.85z"/>
        <path fill="#646564" fill-rule="nonzero" d="M89.138 50a11.956 11.956 0 1 1 11.949-11.95A11.914 11.914 0 0 1 89.137 50zm0-23.197c-6.209.008-11.24 5.04-11.248 11.248a11.24 11.24 0 0 0 11.248 11.24c6.1-.153 10.965-5.142 10.965-11.244 0-6.102-4.865-11.09-10.965-11.244zm0 21.092a9.802 9.802 0 0 1-5.351-1.58 9.858 9.858 0 0 1-4.494-8.264c0-5.437 4.408-9.845 9.845-9.845s9.844 4.408 9.844 9.845-4.407 9.844-9.844 9.844zm0-18.98a9.143 9.143 0 0 0-9.136 9.136 9.143 9.143 0 0 0 9.136 9.135 9.136 9.136 0 1 0 0-18.27z"/>
        <path fill="#646564" d="M105.978 70.652c.9 0 1.63.78 1.63 1.74v.868c0 .621-.31 1.196-.815 1.507-.504.31-1.125.31-1.63 0-.504-.311-.815-.886-.815-1.507v-.867c0-.962.73-1.74 1.63-1.74zM124.457 70.652c.9 0 1.63.78 1.63 1.74v.868c0 .96-.73 1.74-1.63 1.74-.9 0-1.63-.78-1.63-1.74v-.867c0-.962.73-1.74 1.63-1.74zM139.674 70.652c.9 0 1.63.78 1.63 1.74v.868c0 .96-.73 1.74-1.63 1.74-.9 0-1.63-.78-1.63-1.74v-.867c0-.962.73-1.74 1.63-1.74zM159.24 70.652c.9 0 1.63.78 1.63 1.74v.868c0 .96-.73 1.74-1.63 1.74-.901 0-1.631-.78-1.631-1.74v-.867c0-.962.73-1.74 1.63-1.74z"/>
    </g>
</svg>
