<svg id="Layer_1" data-name="Layer 1" xmlns="http://www.w3.org/2000/svg" viewBox="0 0 333.06 177.03"><defs><style>.cls-1,.cls-5{fill:#646564;}.cls-2{opacity:0.2;}.cls-3{fill:#4b4798;}.cls-3,.cls-5{fill-rule:evenodd;}.cls-4{fill:#79ccf0;}</style></defs><title>tracker</title><g class="cls-2"><path class="cls-3" d="M304.39,72.58a11.44,11.44,0,1,1,11.44-11.44A11.44,11.44,0,0,1,304.39,72.58ZM196.58,164.09H73.16c-5.24,0-9.49-5.12-9.49-11.44s4.25-11.44,9.49-11.44H20.27c-5.24,0-9.49-5.12-9.49-11.43s4.25-11.44,9.49-11.44H74.52c5.24,0,9.49-5.12,9.49-11.44s-4.25-11.44-9.49-11.44H40.61c-5.24,0-9.49-5.12-9.49-11.44s4.25-11.44,9.49-11.44H94.86c-5.24,0-9.49-5.12-9.49-11.44S89.62,49.7,94.86,49.7h77.31c5.24,0,9.49,5.13,9.49,11.44s-4.25,11.44-9.49,11.44H259c5.24,0,9.49,5.12,9.49,11.44S264.2,95.46,259,95.46H288.8c5.24,0,9.49,5.12,9.49,11.44s-4.25,11.44-9.49,11.44H263c-5.24,0-9.49,5.12-9.49,11.44s4.25,11.43,9.49,11.43h8.14c5.24,0,9.49,5.13,9.49,11.44s-4.25,11.44-9.49,11.44H200.65a8.15,8.15,0,0,1-2-.26A8.07,8.07,0,0,1,196.58,164.09Z"/></g><path class="cls-4" d="M246.57,81.62a85.62,85.62,0,0,1,8.61,29.94c.83,9.57-.35,19.67-5.56,27.74-7.68,11.9-22.31,17.07-36.1,20.32a242.82,242.82,0,0,1-63.61,6.55c-11.66-.38-24-2-33.1-9.31-8.89-7.19-13.13-18.92-13.74-30.34-.65-11.83,2-23.87,4.7-35.31a124,124,0,0,1,12.84-33c6.17-10.65,14.79-20.15,25.75-25.77,15.41-7.9,34.33-7.35,50.34-.75S226,50.44,236.18,64.44A114.93,114.93,0,0,1,246.57,81.62Z"/><path class="cls-1" d="M133.38,46.45a32.94,32.94,0,0,0-32.9,32.9c0,11.23,9,27.81,27.56,50.67a6.9,6.9,0,0,0,9.68,1,7.35,7.35,0,0,0,1-1l.09-.1h0c18.48-22.8,27.46-39.34,27.46-50.56A32.93,32.93,0,0,0,133.38,46.45Zm28.32,32.9c0,10-8.93,26.08-26.53,47.78a2.19,2.19,0,0,1-.34.34,2.3,2.3,0,0,1-3.24-.34c-17.61-21.7-26.53-37.78-26.53-47.78a28.32,28.32,0,0,1,56.64,0Z"/><path class="cls-1" d="M134.05,95.6a16.37,16.37,0,1,1,16.36-16.36A16.25,16.25,0,0,1,134.05,95.6Zm0-29.75a13.4,13.4,0,0,0-13.39,13.39,13.24,13.24,0,0,0,2.89,8.31,13.39,13.39,0,1,0,10.5-21.7Z"/><path class="cls-1" d="M134.05,96.1a16.87,16.87,0,1,1,16.86-16.86A16.81,16.81,0,0,1,134.05,96.1Zm0-32.73a15.89,15.89,0,0,0-15.87,15.87A15.86,15.86,0,0,0,134.05,95.1a15.87,15.87,0,0,0,0-31.73Zm0,29.76a13.83,13.83,0,0,1-7.55-2.23,13.91,13.91,0,0,1-6.34-11.66,13.89,13.89,0,1,1,13.89,13.89Zm0-26.78a12.9,12.9,0,0,0-12.89,12.89,12.9,12.9,0,0,0,12.89,12.89,12.89,12.89,0,0,0,0-25.78Z"/><path class="cls-5" d="M157.08,124.8a2.55,2.55,0,0,1,2.55,2.55v1.27a2.55,2.55,0,1,1-5.1,0v-1.27A2.55,2.55,0,0,1,157.08,124.8Z"/><path class="cls-5" d="M182.73,124.8a2.55,2.55,0,0,1,2.55,2.55v1.27a2.55,2.55,0,1,1-5.1,0v-1.27A2.55,2.55,0,0,1,182.73,124.8Z"/><path class="cls-5" d="M205.19,124.8a2.55,2.55,0,0,1,2.55,2.55v1.27a2.55,2.55,0,1,1-5.1,0v-1.27A2.55,2.55,0,0,1,205.19,124.8Z"/><path class="cls-5" d="M231.28,124.8a2.55,2.55,0,0,1,2.55,2.55v1.27a2.55,2.55,0,1,1-5.1,0v-1.27A2.55,2.55,0,0,1,231.28,124.8Z"/></svg>