<svg id="Layer_1" data-name="Layer 1" xmlns="http://www.w3.org/2000/svg" viewBox="0 0 333.18 207.59"><defs><style>.cls-1{opacity:0.2;}.cls-2{fill:#4b4798;}.cls-2,.cls-3{fill-rule:evenodd;}.cls-3{fill:#71b95a;opacity:0.73;}.cls-4{fill:#646564;}</style></defs><title>tracker</title><g class="cls-1"><path class="cls-2" d="M305.18,107A12.69,12.69,0,1,1,317.86,94.3,12.69,12.69,0,0,1,305.18,107ZM249,157.71H98.65a12.68,12.68,0,0,1,0-25.36H28A12.68,12.68,0,1,1,28,107h72.46a12.69,12.69,0,0,0,0-25.37H55.17a12.68,12.68,0,1,1,0-25.36h72.47a12.68,12.68,0,0,1,0-25.36H305.18a12.68,12.68,0,1,1,0,25.36H232.72a12.68,12.68,0,1,1,0,25.36h39.85a12.69,12.69,0,0,1,0,25.37H254.14c-8.83,0-16,5.67-16,12.68q0,7,10.87,12.68a12.68,12.68,0,0,1,0,25.36Z"/></g><path class="cls-3" d="M200.1,35c7.13,2,15.89,4.27,23.87,8.75,13.9,7.79,19.12,20.28,18.54,36.08-.53,14.37-4.59,27.73-11.13,40.4a168.91,168.91,0,0,1-29,40.91,59.19,59.19,0,0,1-16,11.85c-15.21,7.58-29.18,5.46-42-5.21-7.51-6.25-13.42-14-19.06-22a154.72,154.72,0,0,1-22-44.86c-3.61-12-6.12-24.09-5.44-36.78.91-16.89,10.36-28.66,26.37-32.91,10.55-2.81,21.25-2.93,32-2.58A191.87,191.87,0,0,1,200.1,35Z"/><path class="cls-4" d="M157.24,131.18a39.23,39.23,0,0,1-3-15.49,55.14,55.14,0,0,1,1.24-8.24l.28-1.49a72.5,72.5,0,0,0,1.61-13.31c0-11.05-2.3-20.26-6.66-26.64-4.24-6.2-10.43-9.62-17.44-9.62s-12.72,3.83-16.41,10.77c-3,5.59-4.61,13-4.61,20.88a148.08,148.08,0,0,0,7.4,43.05c2.82,8.28,6.19,14.91,10,19.69,4.65,5.79,10.16,8.85,15.93,8.85a14.64,14.64,0,0,0,14.82-14.75c0-5.23-1.45-9-2.85-12.7ZM150.94,105c-.13.7-.27,1.38-.4,2a48,48,0,0,0-1.21,8.61,44.69,44.69,0,0,0,3.29,17.2l.39,1c1.41,3.7,2.53,6.63,2.53,11a9.65,9.65,0,0,1-9.89,9.82c-4.34,0-8.29-2.29-12.08-7-3.4-4.23-6.58-10.54-9.19-18.22C119.46,115,117.21,97.85,117.21,88c0-7,1.46-13.79,4-18.56,2.92-5.49,6.87-8.16,12.09-8.16,5.48,0,10,2.51,13.35,7.47,3.81,5.56,5.82,13.81,5.82,23.86A68.78,68.78,0,0,1,150.94,105Z"/><path class="cls-4" d="M214.85,31.77C211.16,24.82,205.33,21,198.43,21S185.24,24.42,181,30.62c-4.36,6.38-6.66,15.59-6.66,26.64A71.64,71.64,0,0,0,176,70.56l.29,1.52a55.81,55.81,0,0,1,1.23,8.22,39.41,39.41,0,0,1-3,15.49l-.38,1c-1.4,3.67-2.85,7.47-2.85,12.7a14.64,14.64,0,0,0,14.81,14.75c5.77,0,11.28-3.06,15.94-8.85,3.84-4.78,7.22-11.41,10-19.69a148.13,148.13,0,0,0,7.4-43.05C219.46,44.77,217.82,37.36,214.85,31.77ZM178.73,98.53l.39-1a44.73,44.73,0,0,0,3.29-17.2,48.21,48.21,0,0,0-1.21-8.62c-.13-.66-.27-1.35-.4-2a68.78,68.78,0,0,1-1.53-12.38c0-10,2-18.3,5.81-23.86,3.39-5,7.88-7.47,13.35-7.47,5.23,0,9.18,2.67,12.1,8.15,2.54,4.78,4,11.55,4,18.57,0,9.81-2.24,27-7.16,41.44-2.61,7.68-5.79,14-9.19,18.22-3.79,4.71-7.74,7-12.09,7a9.65,9.65,0,0,1-9.88-9.82C176.2,105.16,177.31,102.23,178.73,98.53Z"/></svg>