<svg xmlns="http://www.w3.org/2000/svg" width="201" height="100" viewBox="0 0 201 100">
    <g fill="none" fill-rule="evenodd">
        <path fill="#4B4798" d="M192.272 59.41c-4.633.004-8.392-3.754-8.397-8.395-.005-4.64 3.747-8.406 8.38-8.412 4.633-.006 8.394 3.75 8.401 8.39a8.404 8.404 0 0 1-2.448 5.951 8.377 8.377 0 0 1-5.936 2.467zM155.14 93H55.718c-4.63 0-8.384-3.76-8.384-8.397 0-4.638 3.754-8.398 8.384-8.398H8.998c-4.63 0-8.383-3.76-8.383-8.397 0-4.638 3.753-8.397 8.384-8.397h47.916c4.54-.128 8.155-3.852 8.155-8.401 0-4.55-3.615-8.273-8.155-8.4H26.97a8.381 8.381 0 0 1-7.26-4.2 8.41 8.41 0 0 1 0-8.397 8.381 8.381 0 0 1 7.26-4.198h47.91c-4.541-.128-8.156-3.852-8.156-8.401 0-4.55 3.615-8.273 8.155-8.4h117.393c4.54.127 8.155 3.85 8.155 8.4 0 4.55-3.614 8.273-8.155 8.4h-47.916c4.63 0 8.384 3.76 8.384 8.398s-3.753 8.397-8.384 8.397h26.355c4.54.128 8.155 3.851 8.155 8.4 0 4.55-3.614 8.274-8.155 8.402h-12.185c-5.845 0-10.58 3.755-10.58 8.397 0 3.09 2.396 5.89 7.188 8.397 4.63 0 8.383 3.76 8.383 8.398 0 4.637-3.753 8.397-8.383 8.397h.006z" opacity=".2"/>
        <path fill="#EB5A8C" d="M152.912 60.464a56.825 56.825 0 0 1-3.306 20.364c-2.215 5.96-5.779 11.669-11.174 15.02-7.934 4.947-18.163 3.894-27.327 1.933A160.279 160.279 0 0 1 71.25 83.67c-6.863-3.537-13.805-7.987-17.15-14.96-3.307-6.822-2.487-15.04.376-22.047 2.962-7.285 7.934-13.728 12.807-19.808a82.194 82.194 0 0 1 17.012-16.112C91 6.106 98.84 2.874 106.973 2.616c11.445-.358 22.6 5.298 30.295 13.821 7.697 8.523 12.193 19.53 14.315 30.801a75.767 75.767 0 0 1 1.33 13.226z" opacity=".73"/>
        <path fill="#646564" d="M104.01 63.576h9.562v-6.795c-.008-5.285-4.284-9.568-9.561-9.576-4.514 0-8.172 3.665-8.172 8.186 0 4.52 3.658 8.185 8.172 8.185zm-27.769-43.37h3.352l.833-16.49h-5.025l.84 16.49zm3.266 4.47v-1.093H76.32v1.092a1.595 1.595 0 0 0 3.187 0zm56.26 13.993c.932 0 1.687.756 1.687 1.689v6.205c-.011 11.257-9.12 20.38-20.358 20.39h-.278c-1.198 10.75-10.568 18.694-21.351 18.099-10.784-.595-19.227-9.52-19.24-20.337V29.351a4.986 4.986 0 0 1-3.305-4.676V21.94L71.917 2.113A1.69 1.69 0 0 1 73.603.338h8.595a1.685 1.685 0 0 1 1.68 1.775L82.873 21.94v2.735a4.98 4.98 0 0 1-3.306 4.676v35.364c.017 8.948 6.952 16.354 15.866 16.944 8.914.59 16.76-5.837 17.953-14.705h-9.375c-6.376 0-11.544-5.177-11.544-11.563 0-6.386 5.168-11.563 11.544-11.563 7.142.007 12.929 5.806 12.933 12.96v6.788h.158c9.377-.01 16.975-7.621 16.986-17.013v-6.205c0-.933.755-1.69 1.686-1.69h-.006zm0-6.583a1.685 1.685 0 0 1 1.693 1.689v.84c0 .934-.755 1.69-1.686 1.69a1.687 1.687 0 0 1-1.686-1.69v-.84c0-.933.755-1.689 1.686-1.689h-.006zm1.58-11.88h-3.351l-.834-16.49h5.025l-.84 16.49zm-.079 4.47c0 .881-.713 1.596-1.593 1.596s-1.593-.715-1.593-1.597v-1.092h3.186v1.092zM141.183.833a1.698 1.698 0 0 0-1.224-.523h-8.595c-.46.003-.898.191-1.216.523-.323.335-.49.788-.463 1.252l1.005 19.828v2.735a4.976 4.976 0 0 0 2.402 4.52 4.959 4.959 0 0 0 5.113 0 4.976 4.976 0 0 0 2.402-4.52V21.94l1.005-19.827A1.717 1.717 0 0 0 141.19.86l-.006-.027z"/>
    </g>
</svg>
