<svg id="Layer_1" data-name="Layer 1" xmlns="http://www.w3.org/2000/svg" viewBox="0 0 368.69 240.51"><defs><style>.cls-1{opacity:0.2;}.cls-2{fill:#4b4798;}.cls-2,.cls-4{fill-rule:evenodd;}.cls-3{fill:#eb5a8c;opacity:0.73;}.cls-4{fill:#646564;}</style></defs><title>tracker</title><g class="cls-1"><path class="cls-2" d="M325.8,145.71A12.69,12.69,0,1,1,338.48,133,12.68,12.68,0,0,1,325.8,145.71Zm-56.16,50.72H119.27a12.68,12.68,0,1,1,0-25.36H48.61a12.68,12.68,0,0,1,0-25.36h72.47a12.69,12.69,0,0,0,0-25.37H75.79a12.68,12.68,0,1,1,0-25.36h72.46a12.69,12.69,0,0,1,0-25.37H325.8a12.69,12.69,0,0,1,0,25.37H253.33a12.68,12.68,0,0,1,0,25.36h39.86a12.69,12.69,0,0,1,0,25.37H274.76c-8.84,0-16,5.67-16,12.68q0,7,10.87,12.68a12.68,12.68,0,0,1,0,25.36Z"/></g><path class="cls-3" d="M266.27,147.3a85.68,85.68,0,0,1-5,30.75c-3.35,9-8.74,17.62-16.9,22.68-12,7.47-27.47,5.88-41.33,2.92a242.67,242.67,0,0,1-60.28-21.31c-10.38-5.34-20.88-12.06-25.94-22.59-5-10.3-3.76-22.71.57-33.29,4.48-11,12-20.73,19.37-29.91a124.23,124.23,0,0,1,25.73-24.33c10.14-7,22-11.88,34.3-12.27,17.31-.54,34.18,8,45.82,20.87s18.44,29.49,21.65,46.51A114.23,114.23,0,0,1,266.27,147.3Z"/><path class="cls-4" d="M192.31,152h14.46V141.74a14.48,14.48,0,0,0-14.46-14.46,12.36,12.36,0,1,0,0,24.72Zm-42-65.49h5.07l1.26-24.9h-7.6Zm4.94,6.75V91.61h-4.82v1.65a2.41,2.41,0,0,0,4.82,0Zm85.09,21.13a2.55,2.55,0,0,1,2.55,2.55v9.37a30.82,30.82,0,0,1-30.79,30.79h-.42a30.79,30.79,0,0,1-61.39-3.38v-53.4a7.53,7.53,0,0,1-5-7.06V89.13l-1.52-29.94a2.55,2.55,0,0,1,2.55-2.68h13a2.55,2.55,0,0,1,1.84.79,2.51,2.51,0,0,1,.7,1.89l-1.52,29.94v4.13a7.52,7.52,0,0,1-5,7.06v53.4a25.69,25.69,0,0,0,51.15,3.38H192.31a17.46,17.46,0,1,1,0-34.92,19.58,19.58,0,0,1,19.56,19.57V152h.24a25.72,25.72,0,0,0,25.69-25.69v-9.37A2.55,2.55,0,0,1,240.35,114.39Zm0-9.94A2.55,2.55,0,0,1,242.9,107v1.27a2.55,2.55,0,0,1-5.1,0V107A2.55,2.55,0,0,1,240.35,104.45Zm2.39-17.94h-5.07l-1.26-24.9H244Zm-.12,6.75h0a2.41,2.41,0,0,1-4.82,0V91.61h4.82Zm5.92-36a2.57,2.57,0,0,0-1.85-.79h-13a2.57,2.57,0,0,0-1.84.79,2.51,2.51,0,0,0-.7,1.89l1.52,29.94v4.13a7.51,7.51,0,1,0,15,0V89.13l1.52-29.94A2.59,2.59,0,0,0,248.54,57.3Z"/></svg>