<svg xmlns="http://www.w3.org/2000/svg" width="251" height="161" viewBox="0 0 251 161">
    <g fill="none" fill-rule="evenodd">
        <path fill="#EB5A8C" d="M206.516 36.405a47.181 47.181 0 0 1 15.318 7.773c4.17 3.257 7.797 7.526 9.1 12.656 1.913 7.565-1.497 15.405-5.366 22.186a133.95 133.95 0 0 1-21.256 28.1c-4.538 4.559-9.826 8.949-16.195 9.849-6.242.886-12.562-1.834-17.405-5.852-5.017-4.186-8.887-9.761-12.48-15.158a68.15 68.15 0 0 1-8.485-17.568c-1.986-6.486-2.576-13.528-.726-20.057 2.6-9.195 9.932-16.6 18.61-20.574 8.68-3.973 18.574-4.767 28.051-3.615a63.133 63.133 0 0 1 10.834 2.26z" opacity=".73"/>
        <path fill="#79CCF0" d="M168.1 95.83a93.82 93.82 0 0 1-5.52 33.73c-3.67 9.87-9.58 19.32-18.53 24.88-13.21 8.19-30.14 6.45-45.33 3.19a266 266 0 0 1-66.13-23.36C21.21 128.41 9.7 121 4.15 109.49-1.29 98.19 0 84.58 4.77 73c4.92-12 13.17-22.73 21.25-32.8a135.79 135.79 0 0 1 28.22-26.71C65.36 5.82 78.36.45 91.86 0c19-.6 37.49 8.83 50.26 22.89 12.77 14.06 20.22 32.34 23.75 51a125.69 125.69 0 0 1 2.23 21.94z" opacity=".73"/>
        <path fill="#4B4798" d="M173.73 109.78h-1.9V115h-1.28v-5.17h-1.88v-1h5.06zM176.13 108.74l1.59 4.5 1.58-4.5h1.7V115h-1.3v-1.7l.13-2.93-1.68 4.63h-.87l-1.67-4.62.12 2.92v1.7h-1.27v-6.21z"/>
        <path fill="#4B4798" fill-rule="nonzero" d="M73.52 62.35a20.42 20.42 0 0 0-8.7-7.65A29.37 29.37 0 0 0 52 52H26.82v62.87H43V94.05h8.76c7.62 0 13.72-1.87 18.12-5.55a18.56 18.56 0 0 0 6.72-14.91 21 21 0 0 0-3.08-11.24zM42.4 82.6a5 5 0 1 1 0 10 5 5 0 0 1 0-10zM69 87.44c-4.14 3.46-10 5.22-17.23 5.22h-5.39a6.4 6.4 0 0 0 0-10.06H52c3.05 0 5.42-.79 7.05-2.34a8.71 8.71 0 0 0 2.48-6.58 10.57 10.57 0 0 0-2.51-7.35 8.92 8.92 0 0 0-6.84-2.85H41.64v17.78a6.41 6.41 0 0 0 0 12.74v19.52H28.21v-60.1H52A28.11 28.11 0 0 1 64.22 56a19 19 0 0 1 8.12 7.14 19.6 19.6 0 0 1 2.87 10.5A17.24 17.24 0 0 1 69 87.44zm-26-6.22V64.87h9.18A7.5 7.5 0 0 1 58 67.26a9.21 9.21 0 0 1 2.15 6.42 7.34 7.34 0 0 1-2.05 5.57c-1.36 1.31-3.42 2-6.09 2L43 81.22zM108.65 52.49l-.17-.45h-14.9l-23.06 62.87h17.34l3.55-11.49h19.28l3.59 11.49h17.43l-23.06-62.42zm-5 44.52a5 5 0 1 1 5 5 5 5 0 0 1-4.97-5.01l-.03.01zm8.2 5.56a6.41 6.41 0 0 0-3.18-12 4.7 4.7 0 0 0-.53 0l-7.14-23L93.5 92h11.22a6.42 6.42 0 0 0 0 10.06H90.38l-3.55 11.49H72.5l22-60.1h13l22.21 60.1H115.3l-3.45-10.98zm-5.16-12H95.38L101 72.3l5.69 18.27zM183.24 52a6.34 6.34 0 0 0-2.43.48 6 6 0 0 0-1.73-.44H126.3v12.83h18.12v50h16.21v-50h18.45a6 6 0 0 0 1.73-.45 6.17 6.17 0 0 0 2.43.49 6.42 6.42 0 1 0 0-12.83V52zm-24 11.44v50h-13.43v-50h-18.12V53.42h46.72a6.4 6.4 0 0 0 0 10.06l-15.17-.04zm19.84 0a4 4 0 0 1-.7 0 4 4 0 0 1-.69 0 5 5 0 1 1 0-10c.46-.08.93-.08 1.39 0h.09a6.42 6.42 0 0 0 0 9.91l-.09.09zm4.16 0a4.336 4.336 0 0 1-.8-.07 5 5 0 0 1-4.22-4.95 5 5 0 0 1 2.59-4.4 4.87 4.87 0 0 1 1.63-.57 5.4 5.4 0 0 1 .8-.07 5.03 5.03 0 0 1 0 10.06zM204 77.79v4h-1.87V71h4.13a4.22 4.22 0 0 1 2.87.94 3.17 3.17 0 0 1 1.06 2.5 3.06 3.06 0 0 1-1 2.47 4.34 4.34 0 0 1-2.91.88H204zm0-1.51h2.26a2.23 2.23 0 0 0 1.52-.47 1.71 1.71 0 0 0 .53-1.36 1.88 1.88 0 0 0-.53-1.4 2.07 2.07 0 0 0-1.47-.54H204v3.77z"/>
        <path fill="#4B4798" d="M216.48 81a2.81 2.81 0 0 1-2.26.93 2.46 2.46 0 0 1-2-.76 3.24 3.24 0 0 1-.67-2.21v-5.2h1.8V79c0 1 .42 1.52 1.26 1.52a1.79 1.79 0 0 0 1.78-.94v-5.81h1.8v8h-1.7l-.01-.77z"/>
        <path fill="#4B4798" fill-rule="nonzero" d="M227.07 77.86a4.8 4.8 0 0 1-.84 3 2.93 2.93 0 0 1-4.38.24v3.81h-1.8V73.77h1.66l.07.82a2.66 2.66 0 0 1 2.16-1 2.74 2.74 0 0 1 2.3 1.1 4.87 4.87 0 0 1 .83 3v.17zm-1.79-.15a3.35 3.35 0 0 0-.48-1.91 1.54 1.54 0 0 0-1.36-.7 1.65 1.65 0 0 0-1.59.91v3.56c.297.604.928.97 1.6.93a1.57 1.57 0 0 0 1.35-.69 3.7 3.7 0 0 0 .48-2.1zM228.6 71.69a1 1 0 0 1 .26-.69 1 1 0 0 1 .76-.27 1 1 0 0 1 .75.27 1 1 0 0 1 0 1.37 1 1 0 0 1-.75.27 1 1 0 0 1-.76-.27 1 1 0 0 1-.26-.68zm1.91 10.1h-1.8v-8h1.8v8z"/>
        <path fill="#4B4798" d="M234.39 81.79h-1.8V70.41h1.8zM208.35 106.24H205v9.28h-1.86v-9.28h-3.34v-1.51h8.56zM213.31 109.15a4.4 4.4 0 0 0-.73-.06 1.64 1.64 0 0 0-1.67 1v5.48h-1.8v-8h1.72v.9a2 2 0 0 1 1.81-1.05 1.67 1.67 0 0 1 .64.11l.03 1.62z"/>
        <path fill="#4B4798" fill-rule="nonzero" d="M219 115.52a2.69 2.69 0 0 1-.21-.75 2.81 2.81 0 0 1-2.11.9 2.83 2.83 0 0 1-2-.69 2.21 2.21 0 0 1-.76-1.71 2.27 2.27 0 0 1 .95-2 4.61 4.61 0 0 1 2.73-.69h1.1v-.53a1.41 1.41 0 0 0-.35-1 1.37 1.37 0 0 0-1.06-.38 1.62 1.62 0 0 0-1 .31 1 1 0 0 0-.39.78h-1.8a2 2 0 0 1 .44-1.23 2.89 2.89 0 0 1 1.19-.9 4.13 4.13 0 0 1 1.68-.33 3.38 3.38 0 0 1 2.24.71 2.51 2.51 0 0 1 .86 2v3.62a4.12 4.12 0 0 0 .3 1.72v.13l-1.81.04zm-2-1.3a2 2 0 0 0 1-.26c.3-.154.548-.394.71-.69v-1.52h-1a2.69 2.69 0 0 0-1.51.35 1.15 1.15 0 0 0-.5 1c-.015.313.11.617.34.83.272.215.615.318.96.29z"/>
        <path fill="#4B4798" d="M225.73 114.23a1.64 1.64 0 0 0 1.12-.39 1.34 1.34 0 0 0 .48-1H229a2.62 2.62 0 0 1-.46 1.39 3.06 3.06 0 0 1-1.19 1 3.58 3.58 0 0 1-1.62.38 3.38 3.38 0 0 1-2.66-1.09 4.32 4.32 0 0 1-1-3v-.19a4.27 4.27 0 0 1 1-2.93 3.4 3.4 0 0 1 2.67-1.1 3.28 3.28 0 0 1 2.33.84 3 3 0 0 1 .94 2.19h-1.69a1.65 1.65 0 0 0-.48-1.14 1.51 1.51 0 0 0-1.12-.44 1.6 1.6 0 0 0-1.35.63 3.31 3.31 0 0 0-.48 1.93v.28c-.057.7.107 1.4.47 2 .32.43.835.671 1.37.64zM233 112.08l-.8.82v2.62h-1.8v-11.38h1.8v6.56l.56-.7 2.22-2.5h2.16l-3 3.34 3.3 4.68h-2.08z"/>
        <path fill="#4B4798" fill-rule="nonzero" d="M241.69 115.67a3.74 3.74 0 0 1-2.78-1.08 4 4 0 0 1-1.06-2.87v-.22a5 5 0 0 1 .46-2.15 3.58 3.58 0 0 1 1.3-1.47 3.48 3.48 0 0 1 1.87-.53 3.13 3.13 0 0 1 2.52 1.05c.66.855.98 1.923.9 3v.72h-5.24a2.36 2.36 0 0 0 .66 1.57 2 2 0 0 0 1.46.58 2.43 2.43 0 0 0 2-1l1 .93a3.21 3.21 0 0 1-1.28 1.11 4 4 0 0 1-1.81.36zm-.22-6.87a1.49 1.49 0 0 0-1.19.52 2.57 2.57 0 0 0-.58 1.44h3.43v-.13a2.22 2.22 0 0 0-.48-1.37 1.53 1.53 0 0 0-1.18-.46z"/>
        <path fill="#4B4798" d="M250.5 109.15a4.32 4.32 0 0 0-.73-.06 1.64 1.64 0 0 0-1.67 1v5.48h-1.8v-8h1.7v.9a2 2 0 0 1 1.81-1.05 1.67 1.67 0 0 1 .64.11l.05 1.62z"/>
        <path fill="#4B4798" fill-rule="nonzero" d="M207.15 96.14H203l-.87 2.52h-1.95l4.08-10.8h1.68l4.08 10.8h-2l-.87-2.52zm-3.65-1.51h3.13l-1.57-4.48-1.56 4.48z"/>
        <path fill="#4B4798" d="M214.34 97.37a1.6 1.6 0 0 0 1.12-.4 1.35 1.35 0 0 0 .47-1h1.7a2.66 2.66 0 0 1-.47 1.4 3.07 3.07 0 0 1-1.19 1 3.53 3.53 0 0 1-1.61.38 3.45 3.45 0 0 1-2.67-1.09 4.32 4.32 0 0 1-1-3v-.19a4.25 4.25 0 0 1 1-2.93 3.4 3.4 0 0 1 2.67-1.1 3.32 3.32 0 0 1 2.33.83 3 3 0 0 1 .95 2.19h-1.7a1.66 1.66 0 0 0-.47-1.13 1.52 1.52 0 0 0-1.12-.45 1.58 1.58 0 0 0-1.35.64 3.16 3.16 0 0 0-.48 1.92v.29a3.26 3.26 0 0 0 .47 2 1.59 1.59 0 0 0 1.35.64zM221.24 88.69v2h1.42V92h-1.42v4.48a1 1 0 0 0 .18.66.85.85 0 0 0 .65.21 2.72 2.72 0 0 0 .63-.08v1.39a4.18 4.18 0 0 1-1.18.18c-1.39 0-2.08-.77-2.08-2.29V92h-1.32v-1.36h1.32v-2l1.8.05z"/>
        <path fill="#4B4798" fill-rule="nonzero" d="M224 88.55a1 1 0 0 1 .26-.69 1.19 1.19 0 0 1 1.51 0 1 1 0 0 1 .27.69.91.91 0 0 1-.27.68 1.19 1.19 0 0 1-1.51 0 .94.94 0 0 1-.26-.68zm2 10.11h-1.8v-8h1.8v8z"/>
        <path fill="#4B4798" d="M230.74 96.37l1.7-5.73h1.86l-2.78 8H230l-2.8-8h1.8z"/>
        <path fill="#4B4798" fill-rule="nonzero" d="M235.42 88.55a1 1 0 0 1 .27-.69 1 1 0 0 1 .75-.27 1 1 0 0 1 .75.27 1 1 0 0 1 .27.69.91.91 0 0 1-.27.68 1 1 0 0 1-.75.27 1 1 0 0 1-.75-.27.91.91 0 0 1-.27-.68zm1.92 10.11h-1.81v-8h1.81v8z"/>
        <path fill="#4B4798" d="M241.55 88.69v2H243V92h-1.42v4.48a1 1 0 0 0 .18.66.83.83 0 0 0 .65.21 2.72 2.72 0 0 0 .63-.08v1.39a4.18 4.18 0 0 1-1.18.18c-1.39 0-2.08-.77-2.08-2.29V92h-1.32v-1.36h1.32v-2l1.77.05zM247.15 96.08l1.63-5.44h1.92l-3.19 9.23a2.6 2.6 0 0 1-2.49 2 3.27 3.27 0 0 1-.87-.14v-1.4h.35c.35.02.697-.064 1-.24a1.74 1.74 0 0 0 .55-.84l.26-.69-2.82-8h1.94l1.72 5.52z"/>
    </g>
</svg>
